<svg xmlns="http://www.w3.org/2000/svg" width="391.98" height="339.3" viewBox="0 0 391.98 339.3"><title>visual-features-email-marketing-automation</title><path d="M85.09,312.34S-10,292.47,39,209.13-17.9,69.58,64.77,10.06c62.72-45.15,93.92,78.7,156.75,38.36s129-34.39,119,56.88,22.48,93.91,45,125.66S364.43,313,364.43,313Z" fill="#ecf4ff"/><path d="M61.91,183.61c3-1.3,6.91-.37,10,.12.33.06,1,.24,1.79.42-1.45-1-2.9-2-4.36-2.93l-2.92-1.91c-.78.34-2.56.5-4.46,1.22-2.23.86-3,2-5.54.82-2.41-1.14-4-3.8-1-5.09,2.57-1.09,5.49,0,8.15,1.18a49,49,0,0,1-8.34-6.74c-9.38-2-16.53-13.33-17.59-22.23A4,4,0,0,1,38,146c.95-1.61,3.43-1.31,5-.27A12.78,12.78,0,0,1,47.45,152c.93,2.44,1.43,5,2.22,7.52a29.53,29.53,0,0,0,2.64,5.78s.07.05.09.09a36.05,36.05,0,0,0,7.73,7.42A29,29,0,0,1,57.19,167a15.43,15.43,0,0,1-.78-9.86,2.12,2.12,0,0,1,1-1.49,2.15,2.15,0,0,1,2.11.73,11.08,11.08,0,0,1,3.53,7.28c.26,3.52-.73,7.07-.61,10.61l-.13,0c1.78,1.19,3.6,2.33,5.42,3.44a23.33,23.33,0,0,1-2.23-7.57,6.45,6.45,0,0,1,.64-3.71,3.07,3.07,0,0,1,3.18-1.6,3.27,3.27,0,0,1,1.77,1.27c1.41,1.91,1.28,4.51,1.09,6.88s-.29,4.78-.58,7.14l.64.42q4.68,3,9.27,6.16a41.65,41.65,0,0,1-3.31-5.31,24.11,24.11,0,0,1-2.94-12.06,8.77,8.77,0,0,1,1.38-4.7,1.88,1.88,0,0,1,1.64-1,2,2,0,0,1,1,.49,9.29,9.29,0,0,1,2.83,6.06c.47,3.56,0,7.15-.12,10.73a20.19,20.19,0,0,0,.59,6.45q4.74,3.28,9.33,6.76a42.14,42.14,0,0,1-5.73-10.59c-1.22-3.08-1.86-6.86.15-9.5a3.14,3.14,0,0,1,1.07-1c1.36-.66,3,.3,3.86,1.55a9.39,9.39,0,0,1,1.34,5.55c0,1.94-.41,3.85-.51,5.78a24.26,24.26,0,0,0,1.82,9.7q3.52,2.75,6.95,5.62a33.47,33.47,0,0,1-1.95-4.49,23.31,23.31,0,0,1-1.27-9.9c.11-1.13.41-2.41,1.41-2.94a3.08,3.08,0,0,1,2.82.35,8.09,8.09,0,0,1,4,6.13,16.12,16.12,0,0,1-.53,4.87l-1.08,5a10.89,10.89,0,0,0-.17,3.77q3.7,3.26,7.24,6.71a28.7,28.7,0,0,1-1.78-3.71,15.47,15.47,0,0,1-.92-9,3.9,3.9,0,0,1,1.61-2.63,3,3,0,0,1,3.85,1.3,6.47,6.47,0,0,1,.55,4.38,15.51,15.51,0,0,1-1.23,4,12.47,12.47,0,0,0-1.12,2.77,8.9,8.9,0,0,0,.34,3.65l.18.75c1.82,1.81,3.65,3.67,5.42,5.58a15.64,15.64,0,0,1,0-8.26c.44-1.58,1.5-3.32,3.13-3.3a2.41,2.41,0,0,1,1.43.5c1.5,1.1,1.59,3.38.91,5.12s-1.94,3.18-2.75,4.86c-.46,1-.38,2.34-.7,3.32a74.13,74.13,0,0,1,7.42,9.79.91.91,0,0,1-1.48,1c-2.09-2.32-4.13-4.68-6.19-7-1.19,1-6.59,3.63-7.41,4.09-1.3.74-3.08,1-4.19,0a3.06,3.06,0,0,1-.17-3.95,6,6,0,0,1,3.69-2.09,20.79,20.79,0,0,1,6.62.28c-2.12-2.39-4.27-4.76-6.49-7.06a11.67,11.67,0,0,0-2.71.72c-1.37.64-2.52,1.66-3.9,2.26s-3.17.69-4.2-.4c-1.23-1.3-.61-3.63.85-4.67a7.24,7.24,0,0,1,5.18-.84c.56.08,1.37.17,2.19.33l-.56-.55q-1.55-1.47-3.12-2.92c-1.78.9-4.59,1-6.58,1.56s-3.81,1.21-5.72.85-3.71-2.21-3.19-4.09c.47-1.7,2.47-2.45,4.24-2.56a21.2,21.2,0,0,1,8.15,1.45c-2.27-2-4.59-4-6.93-5.87-3.38.46-7,4.09-10.8,3.75C83.37,204.1,81,203,81.23,201c.19-1.57,2.6-2.32,3.85-2.77a14,14,0,0,1,7.56-.2c-.93-.74-1.87-1.48-2.82-2.21-1.21-.94-2.44-1.87-3.67-2.79a26.38,26.38,0,0,0-5.35,1.62c-2.48,1.1-4.93,2.81-7.62,1-2.47-1.68-4.51-6-.46-6.76,2.27-.45,6,0,9.28,1.09q-3.59-2.59-7.24-5.09c-1.89.75-3.67.85-6.23,2.54-2.07,1.37-4.24,4.24-6.85,2.85C58.59,188.6,58.9,184.9,61.91,183.61Z" fill="#3fa9f5"/><path d="M60.41,136.93c3.26-.5,6.78,1.38,9.67,2.65.3.13,1,.49,1.62.85-1.15-1.32-2.3-2.63-3.47-3.93-.78-.87-1.56-1.72-2.35-2.58-.84.13-2.6-.17-4.62.05-2.38.27-3.39,1.2-5.56-.61s-2.92-4.68.32-5.17c2.76-.41,5.31,1.38,7.59,3.2a49.29,49.29,0,0,1-6.37-8.63c-8.57-4.34-12.64-17.07-11.42-25.94a4,4,0,0,1,.92-2.37c1.32-1.32,3.64-.39,4.88,1a12.78,12.78,0,0,1,2.79,7.2c.28,2.6.11,5.23.25,7.84a29.58,29.58,0,0,0,1.09,6.26s.06.06.07.11A35.8,35.8,0,0,0,61.43,126a28.34,28.34,0,0,1-1.4-6.3A15.37,15.37,0,0,1,61.76,110a2.1,2.1,0,0,1,1.37-1.18c.78-.11,1.43.57,1.86,1.23A11.09,11.09,0,0,1,66.57,118c-.64,3.47-2.48,6.66-3.26,10.11h-.13c1.41,1.6,2.89,3.16,4.37,4.7a23.76,23.76,0,0,1-.25-7.9,6.49,6.49,0,0,1,1.56-3.42,3.08,3.08,0,0,1,3.48-.75,3.25,3.25,0,0,1,1.39,1.68c.89,2.2.1,4.69-.68,6.93s-1.49,4.56-2.37,6.76l.53.57c2.5,2.73,5,5.49,7.41,8.3a40.44,40.44,0,0,1-1.86-6,24,24,0,0,1,.2-12.42,8.7,8.7,0,0,1,2.52-4.2,1.89,1.89,0,0,1,1.82-.51,2,2,0,0,1,.81.72,9.29,9.29,0,0,1,1.21,6.57c-.45,3.57-1.84,6.91-2.83,10.35a20.2,20.2,0,0,0-1,6.4c2.5,2.91,5,5.88,7.32,8.89a42,42,0,0,1-2.87-11.69c-.4-3.29-.07-7.11,2.54-9.16a3.16,3.16,0,0,1,1.28-.64c1.48-.3,2.84,1,3.34,2.47a9.37,9.37,0,0,1-.11,5.71c-.53,1.86-1.37,3.62-2,5.46a24.32,24.32,0,0,0-.68,9.85q2.72,3.54,5.3,7.19a34.17,34.17,0,0,1-.75-4.84,23.45,23.45,0,0,1,1.27-9.9c.39-1.07,1-2.23,2.11-2.48a3,3,0,0,1,2.63,1.05,8,8,0,0,1,2.31,6.92,15.64,15.64,0,0,1-1.74,4.58l-2.3,4.54A11.14,11.14,0,0,0,96,167.42q2.78,4.08,5.32,8.31a29.28,29.28,0,0,1-.79-4,15.49,15.49,0,0,1,1.39-9,3.93,3.93,0,0,1,2.23-2.14,3,3,0,0,1,3.4,2.23,6.48,6.48,0,0,1-.58,4.37,15.86,15.86,0,0,1-2.19,3.56,12.08,12.08,0,0,0-1.78,2.39,8.87,8.87,0,0,0-.6,3.62c0,.26,0,.51,0,.77,1.31,2.22,2.61,4.47,3.84,6.77a15.66,15.66,0,0,1,2.09-8c.82-1.4,2.28-2.82,3.86-2.4a2.52,2.52,0,0,1,1.26.85c1.17,1.45.68,3.67-.42,5.18s-2.67,2.59-3.88,4c-.69.81-1,2.16-1.52,3a76,76,0,0,1,4.72,11.35.91.91,0,0,1-1.71.64c-1.43-2.77-2.81-5.56-4.21-8.34-1.41.68-7.3,1.85-8.21,2.09-1.44.39-3.24.2-4.06-1.05a3.07,3.07,0,0,1,.84-3.86,5.94,5.94,0,0,1,4.09-1.09,20.72,20.72,0,0,1,6.34,1.93c-1.45-2.84-2.93-5.67-4.5-8.46a12,12,0,0,0-2.81,0c-1.47.27-2.85,1-4.33,1.21s-3.25-.14-4-1.45c-.87-1.57.33-3.67,2-4.3a7.18,7.18,0,0,1,5.23.49c.52.21,1.27.5,2,.87-.14-.22-.26-.45-.4-.67-.75-1.22-1.51-2.42-2.28-3.61-2,.41-4.7-.22-6.77-.16s-4,.21-5.75-.61-3-3.08-2-4.77c.88-1.53,3-1.75,4.75-1.41a21.27,21.27,0,0,1,7.52,3.46q-2.53-3.76-5.23-7.43c-3.38-.4-7.76,2.21-11.39.91-1.47-.53-3.49-2.22-2.75-4.09.58-1.47,3.1-1.58,4.42-1.7a14,14,0,0,1,7.37,1.7l-2.17-2.85q-1.41-1.81-2.85-3.62a26.57,26.57,0,0,0-5.59.22c-2.67.44-5.47,1.48-7.62-1-2-2.24-2.86-6.9,1.26-6.65a20.69,20.69,0,0,1,8.71,3.4q-2.82-3.42-5.72-6.76c-2,.25-3.77-.1-6.67.89-2.35.8-5.18,3-7.35,1C56,140.92,57.18,137.42,60.41,136.93Z" fill="#3fa9f5"/><circle cx="193.66" cy="83.29" r="30.21" fill="#fff"/><circle cx="193.85" cy="82.72" r="18.21" fill="#60d9db"/><path d="M174.42,116.72a1.24,1.24,0,0,1-.86-.35,1.23,1.23,0,0,1,0-1.72l4.78-4.78a1.21,1.21,0,0,1,1.71,1.72l-4.77,4.78A1.24,1.24,0,0,1,174.42,116.72Z" fill="#ccc"/><path d="M213.28,116.72a1.21,1.21,0,0,1-.86-.35l-4.81-4.81a1.21,1.21,0,0,1,1.71-1.72l4.81,4.81a1.21,1.21,0,0,1-.85,2.07Z" fill="#ccc"/><path d="M215.82,61.13a1.21,1.21,0,0,1-.86-.36,1.23,1.23,0,0,1,0-1.72l3.64-3.64a1.22,1.22,0,0,1,1.72,1.72l-3.64,3.64A1.21,1.21,0,0,1,215.82,61.13Z" fill="#f3c07e"/><path d="M171.88,61.13a1.21,1.21,0,0,1-.86-.36l-3.64-3.64a1.21,1.21,0,0,1,1.71-1.72l3.65,3.64a1.23,1.23,0,0,1,0,1.72A1.21,1.21,0,0,1,171.88,61.13Z" fill="#f3c07e"/><path d="M193.85,116.72a34,34,0,1,1,34-34A34,34,0,0,1,193.85,116.72Zm0-63.14A29.15,29.15,0,1,0,223,82.72,29.19,29.19,0,0,0,193.85,53.58Z" fill="#60d9db"/><path d="M193.85,54.65a1.22,1.22,0,0,0-1.22,1.21v1.22a1.22,1.22,0,0,0,2.43,0V55.86A1.21,1.21,0,0,0,193.85,54.65Z" fill="#e6e7ea"/><path d="M193.85,106.86a1.22,1.22,0,0,0-1.22,1.22v1.21a1.22,1.22,0,0,0,2.43,0v-1.21A1.21,1.21,0,0,0,193.85,106.86Z" fill="#e6e7ea"/><path d="M220.56,81.36h-1.21a1.22,1.22,0,1,0,0,2.43h1.21a1.22,1.22,0,1,0,0-2.43Z" fill="#e6e7ea"/><path d="M168.35,81.36h-1.22a1.22,1.22,0,0,0,0,2.43h1.22a1.22,1.22,0,0,0,0-2.43Z" fill="#e6e7ea"/><path d="M211.88,62.83l-.86.86a1.2,1.2,0,0,0,0,1.71,1.21,1.21,0,0,0,1.72,0l.85-.86a1.21,1.21,0,1,0-1.71-1.71Z" fill="#e6e7ea"/><path d="M175,99.75l-.86.86a1.2,1.2,0,0,0,0,1.71,1.21,1.21,0,0,0,1.72,0l.86-.85A1.22,1.22,0,0,0,175,99.75Z" fill="#e6e7ea"/><path d="M212.74,99.75a1.22,1.22,0,1,0-1.72,1.72l.86.85a1.2,1.2,0,0,0,.86.36,1.17,1.17,0,0,0,.85-.36,1.2,1.2,0,0,0,0-1.71Z" fill="#e6e7ea"/><path d="M175.82,62.83a1.21,1.21,0,1,0-1.72,1.71l.86.86a1.2,1.2,0,0,0,.86.36,1.22,1.22,0,0,0,.86-2.07Z" fill="#e6e7ea"/><path d="M179.28,82.72a1.22,1.22,0,0,0,1.21,1.22h8.67a4.85,4.85,0,1,0,5.9-5.9V65.72a1.22,1.22,0,0,0-2.43,0V78a4.84,4.84,0,0,0-3.47,3.47h-8.67A1.21,1.21,0,0,0,179.28,82.72Zm12.14,0a2.43,2.43,0,1,1,2.43,2.43A2.43,2.43,0,0,1,191.42,82.72Z" fill="#fff"/><path d="M225.32,49.85a8.66,8.66,0,0,1,0,12.23L213.09,49.85A8.66,8.66,0,0,1,225.32,49.85Z" fill="#60d9db"/><path d="M162.38,49.85a8.64,8.64,0,0,0,0,12.23l12.23-12.23A8.66,8.66,0,0,0,162.38,49.85Z" fill="#60d9db"/><path d="M165.66,339.3h-113c-.35,0-.63-.53-.63-1.19s.28-1.19.63-1.19h113c.34,0,.63.53.63,1.19S166,339.3,165.66,339.3Z" fill="#003779"/><path d="M310.42,339.3h-113c-.35,0-.63-.53-.63-1.19s.28-1.19.63-1.19h113c.35,0,.63.53.63,1.19S310.77,339.3,310.42,339.3Z" fill="#003779"/><path d="M90.77,162.55V296.87a16.4,16.4,0,0,0,16.38,16.38H284.06a16.4,16.4,0,0,0,16.38-16.38V162.55Z" fill="#fff"/><path d="M284.06,116.68H107.15a16.4,16.4,0,0,0-16.38,16.38v29.49H300.44V133.06A16.4,16.4,0,0,0,284.06,116.68ZM117,149.44a9.83,9.83,0,1,1,9.83-9.82A9.83,9.83,0,0,1,117,149.44Zm157.25,0a9.83,9.83,0,1,1,9.83-9.82A9.83,9.83,0,0,1,274.23,149.44Z" fill="#1269e0"/><path d="M195.6,192a13.11,13.11,0,1,0,13.11,13.11A13.12,13.12,0,0,0,195.6,192Z" fill="#e6e7ea"/><path d="M162.84,192A13.11,13.11,0,1,0,176,205.14,13.12,13.12,0,0,0,162.84,192Z" fill="#e6e7ea"/><path d="M130.08,192a13.11,13.11,0,1,0,13.11,13.11A13.12,13.12,0,0,0,130.08,192Z" fill="#60d9db"/><path d="M228.37,192a13.11,13.11,0,1,0,13.1,13.11A13.12,13.12,0,0,0,228.37,192Z" fill="#60d9db"/><path d="M261.13,218.24A13.11,13.11,0,1,0,248,205.14,13.11,13.11,0,0,0,261.13,218.24Z" fill="#e6e7ea"/><path d="M195.6,224.8a13.1,13.1,0,1,0,13.11,13.1A13.11,13.11,0,0,0,195.6,224.8Z" fill="#e6e7ea"/><path d="M162.84,224.8A13.1,13.1,0,1,0,176,237.9,13.11,13.11,0,0,0,162.84,224.8Z" fill="#e6e7ea"/><path d="M130.08,224.8a13.1,13.1,0,1,0,13.11,13.1A13.11,13.11,0,0,0,130.08,224.8Z" fill="#e6e7ea"/><path d="M228.37,224.8a13.1,13.1,0,1,0,13.1,13.1A13.11,13.11,0,0,0,228.37,224.8Z" fill="#60d9db"/><path d="M261.13,224.8a13.1,13.1,0,1,0,13.1,13.1A13.11,13.11,0,0,0,261.13,224.8Z" fill="#e6e7ea"/><path d="M195.6,257.56a13.1,13.1,0,1,0,13.11,13.1A13.11,13.11,0,0,0,195.6,257.56Z" fill="#60d9db"/><path d="M162.84,257.56A13.1,13.1,0,1,0,176,270.66,13.11,13.11,0,0,0,162.84,257.56Z" fill="#e6e7ea"/><path d="M130.08,257.56a13.1,13.1,0,1,0,13.11,13.1A13.11,13.11,0,0,0,130.08,257.56Z" fill="#e6e7ea"/><path d="M228.37,257.56a13.1,13.1,0,1,0,13.1,13.1A13.11,13.11,0,0,0,228.37,257.56Z" fill="#e6e7ea"/><path d="M261.13,257.56a13.1,13.1,0,1,0,13.1,13.1A13.11,13.11,0,0,0,261.13,257.56Z" fill="#e6e7ea"/><path d="M117,144.53a4.91,4.91,0,0,1-4.92-4.91V116.68a4.92,4.92,0,0,1,9.83,0v22.94A4.91,4.91,0,0,1,117,144.53Z" fill="#3fa9f5"/><path d="M274.23,144.53a4.91,4.91,0,0,1-4.91-4.91V116.68a4.91,4.91,0,1,1,9.82,0v22.94A4.91,4.91,0,0,1,274.23,144.53Z" fill="#3fa9f5"/><circle cx="130.08" cy="205.14" r="13.1" transform="translate(-111.97 184.84) rotate(-52.83)" fill="#e6e7ea"/><circle cx="195.6" cy="270.66" r="13.1" transform="translate(-136.83 302.33) rotate(-59.59)" fill="#e6e7ea"/><circle cx="228.37" cy="237.9" r="13.1" transform="translate(-34.16 437.47) rotate(-83.41)" fill="#e6e7ea"/><polygon points="318.13 289.26 324.39 313.25 343.44 313.25 349.19 289.26 318.13 289.26" fill="#e6e7ea"/><path d="M348.61,260.09a7.52,7.52,0,0,0-3.32-6.25,6.58,6.58,0,0,0-5.15-10.69h-.28a6.59,6.59,0,0,0-12.61-3.81,6.51,6.51,0,0,0,0,3.81H327a6.58,6.58,0,0,0-5.15,10.69,7.53,7.53,0,0,0-2,10.45,7.34,7.34,0,0,0,2,2A6.58,6.58,0,0,0,327,277h13.17a6.59,6.59,0,0,0,5.15-10.7A7.51,7.51,0,0,0,348.61,260.09Z" fill="#3fa9f5"/><path d="M340.81,255.66a.94.94,0,0,0-1.33,0l-5,5V246.91a.94.94,0,0,0-1.88,0v6.67l-4.27-4.27a.94.94,0,0,0-1.33,1.33l5.6,5.6v12.87l-4-4a.94.94,0,0,0-1.33,1.33l5.37,5.37v17.49a.94.94,0,1,0,1.88,0v-26a1,1,0,0,0,.2-.13l6.12-6.12a1,1,0,0,0,0-1.33Z" fill="#60d9db"/><path d="M349.55,290.2h-32a.94.94,0,0,1,0-1.88h32a.94.94,0,0,1,0,1.88Z" fill="#60d9db"/><path d="M338.27,89.83a1.94,1.94,0,1,1-2.73.19A1.94,1.94,0,0,1,338.27,89.83Z" fill="#ef7483"/><path d="M298,84.2a1.63,1.63,0,1,1-2.3.16A1.62,1.62,0,0,1,298,84.2Z" fill="#ef7483"/><path d="M344,75.1l-2.74-3.19,1.07-4.07a.63.63,0,0,0-.19-.62.64.64,0,0,0-.65-.1l-3.88,1.62-3.53-2.28a.62.62,0,0,0-.95.57l.34,4.19-3.25,2.66a.62.62,0,0,0,.25,1.08l4.09,1c1.66,4.27,1.53,4,1.69,4.16a.65.65,0,0,0,.35.15.6.6,0,0,0,.58-.3l2.19-3.59,4.19-.24A.61.61,0,0,0,344,75.1Z" fill="#ef7483"/><path d="M348.76,105.57l-.26-3.52,2.75-2.2a.52.52,0,0,0-.2-.91l-3.43-.84-1.25-3.3a.52.52,0,0,0-.92-.09l-1.86,3-3.52.17a.52.52,0,0,0-.37.85l2.27,2.69-.92,3.4a.43.43,0,0,0,0,.25.51.51,0,0,0,.7.37l3.27-1.33L348,106A.52.52,0,0,0,348.76,105.57Z" fill="#ef7483"/><path d="M297.21,110.35s9.64-14.19,11.48-25.27A2.59,2.59,0,0,0,306.54,82h0a2,2,0,0,0-2.43,1.58h0A71.23,71.23,0,0,1,297.21,110.35Z" fill="#ef7483"/><path d="M329.9,122.51h0l.68.12a2.18,2.18,0,0,0,2.66-1.91c.31-2.17-2.08-2.57-2.47-2.62-13.1-1.22-26.63,5.31-26.63,5.31a66.07,66.07,0,0,1,25.76-.9Z" fill="#ef7483"/><path d="M293.18,91.79c-.11-.44-.71-2.63-2.52-2.07a1.64,1.64,0,0,0-1.07,2.36h0a52.55,52.55,0,0,1,2.18,20.57S295.26,101.79,293.18,91.79Z" fill="#ef7483"/><path d="M316.86,79.42c.22-.13.16-.15,0-2.38,1.76-1.41,1.8-1.37,1.75-1.62s-.1-.2-2.27-.74c-.8-2.11-.75-2.13-1-2.16s-.22,0-1.4,1.93l-2.1.1a.31.31,0,0,0-.22.51l1.35,1.6c-.59,2.18-.65,2.17-.46,2.34s.2.11,2.27-.74l1.76,1.15A.29.29,0,0,0,316.86,79.42Z" fill="#ef7483"/><path d="M331.87,83.09h0c-1-2.5-1.28-2.86-4-3.51h0c-2.37-.56-3.39.67-3.63,1-4.12,6.63-12.63,20-21.65,32.1,10.72-10.58,22.73-20.81,28.74-25.82C332,86.31,332.83,85.57,331.87,83.09Z" fill="#ef7483"/><path d="M335.43,105.56a1.6,1.6,0,0,0,1.27-1l.38-1.39a1.48,1.48,0,0,0-.23-1.3l-.08-.08h0l-.76-.9a1.8,1.8,0,0,0-1.91-.5c-13.3,4.65-29.18,17.3-29.18,17.3a101.88,101.88,0,0,1,30.5-12.14Z" fill="#ef7483"/><path d="M35,275.63c1.79-.27,3.74.76,5.32,1.46.17.07.53.27.9.47-.63-.73-1.27-1.45-1.91-2.17-.43-.47-.86-.95-1.3-1.42-.46.07-1.43-.1-2.54,0-1.32.15-1.87.66-3.07-.34s-1.61-2.58.18-2.85c1.52-.23,2.92.76,4.18,1.77a27.3,27.3,0,0,1-3.51-4.76c-4.72-2.39-7-9.41-6.29-14.3a2.19,2.19,0,0,1,.5-1.31c.73-.72,2-.21,2.69.56a7,7,0,0,1,1.54,4c.15,1.44.06,2.89.13,4.33a16.82,16.82,0,0,0,.61,3.45l0,.05a19.36,19.36,0,0,0,3.09,5,15.61,15.61,0,0,1-.77-3.47,8.45,8.45,0,0,1,1-5.37,1.19,1.19,0,0,1,.76-.65c.43-.06.78.32,1,.68a6.07,6.07,0,0,1,.87,4.37c-.35,1.92-1.37,3.68-1.8,5.58h-.07c.78.89,1.6,1.75,2.41,2.59a12.81,12.81,0,0,1-.13-4.35,3.53,3.53,0,0,1,.85-1.88,1.71,1.71,0,0,1,1.92-.42,1.86,1.86,0,0,1,.77.93,5.5,5.5,0,0,1-.38,3.82c-.43,1.23-.81,2.51-1.3,3.73l.29.31c1.38,1.5,2.74,3,4.08,4.57a22.35,22.35,0,0,1-1-3.29,13.21,13.21,0,0,1,.11-6.84,4.76,4.76,0,0,1,1.39-2.32,1,1,0,0,1,1-.28,1.08,1.08,0,0,1,.45.4,5.1,5.1,0,0,1,.66,3.62A38,38,0,0,1,46,277a10.92,10.92,0,0,0-.59,3.52c1.39,1.61,2.73,3.24,4,4.91A23.36,23.36,0,0,1,47.91,279c-.22-1.82,0-3.92,1.4-5.05a1.84,1.84,0,0,1,.71-.36c.81-.16,1.56.58,1.84,1.37a5.18,5.18,0,0,1-.06,3.14c-.3,1-.76,2-1.08,3a13.29,13.29,0,0,0-.37,5.43q1.5,1.95,2.92,4a17.19,17.19,0,0,1-.41-2.67,12.83,12.83,0,0,1,.7-5.46c.21-.58.55-1.23,1.16-1.37a1.67,1.67,0,0,1,1.45.58,4.44,4.44,0,0,1,1.27,3.82,8.64,8.64,0,0,1-1,2.53l-1.26,2.5a5.69,5.69,0,0,0-.62,2q1.51,2.25,2.93,4.58a14,14,0,0,1-.43-2.22,8.52,8.52,0,0,1,.76-5,2.13,2.13,0,0,1,1.23-1.18A1.67,1.67,0,0,1,61,289.89a3.5,3.5,0,0,1-.32,2.41,8.22,8.22,0,0,1-1.21,2,7.78,7.78,0,0,0-1,1.32,5,5,0,0,0-.33,2V298c.72,1.22,1.43,2.47,2.11,3.73a8.71,8.71,0,0,1,1.15-4.41c.46-.77,1.26-1.55,2.13-1.32a1.36,1.36,0,0,1,.69.47,2.42,2.42,0,0,1-.22,2.85c-.61.83-1.48,1.43-2.15,2.22a15.26,15.26,0,0,0-.83,1.67,41.87,41.87,0,0,1,2.6,6.25.5.5,0,0,1-.94.36c-.79-1.53-1.56-3.07-2.33-4.61a41.39,41.39,0,0,1-4.52,1.16,2,2,0,0,1-2.24-.58,1.69,1.69,0,0,1,.47-2.13,3.22,3.22,0,0,1,2.25-.6,11.28,11.28,0,0,1,3.49,1.07c-.79-1.57-1.61-3.13-2.48-4.67a6.11,6.11,0,0,0-1.54,0c-.82.15-1.58.53-2.4.66a2.07,2.07,0,0,1-2.18-.8,1.81,1.81,0,0,1,1.1-2.37,4,4,0,0,1,2.88.27c.29.12.71.28,1.12.48l-.22-.37c-.41-.67-.83-1.33-1.26-2a24.52,24.52,0,0,1-3.72-.08,7.16,7.16,0,0,1-3.17-.34,2,2,0,0,1-1.14-2.63,2.45,2.45,0,0,1,2.62-.78,11.79,11.79,0,0,1,4.15,1.91c-.94-1.39-1.9-2.75-2.88-4.1-1.87-.22-4.28,1.22-6.28.5-.81-.29-1.93-1.22-1.52-2.25.32-.81,1.71-.87,2.44-.94a7.81,7.81,0,0,1,4.06.94c-.4-.52-.79-1.05-1.2-1.57-.51-.67-1-1.33-1.57-2a14.63,14.63,0,0,0-3.08.11c-1.47.25-3,.82-4.2-.53s-1.57-3.8.69-3.67a11.52,11.52,0,0,1,4.81,1.88q-1.56-1.89-3.16-3.73a13.74,13.74,0,0,0-3.68.49c-1.29.44-2.85,1.67-4,.57A2,2,0,0,1,35,275.63Z" fill="#3fa9f5"/><path d="M53.12,270c1.74.52,3.05,2.29,4.19,3.6.12.14.36.47.61.81-.27-.93-.53-1.85-.81-2.78-.18-.61-.37-1.22-.56-1.84-.45-.13-1.25-.7-2.31-1.06-1.25-.43-2-.2-2.63-1.62s-.35-3,1.38-2.5c1.47.45,2.32,1.95,3,3.39a27.07,27.07,0,0,1-1.14-5.8c-3.24-4.19-2.26-11.49.44-15.62a2.25,2.25,0,0,1,1-1c1-.34,1.91.67,2.2,1.66a7.09,7.09,0,0,1-.31,4.24c-.48,1.36-1.18,2.63-1.73,4a17,17,0,0,0-.93,3.38s0,.05,0,.07a19.74,19.74,0,0,0,.64,5.87A15.52,15.52,0,0,1,57,261.3a8.44,8.44,0,0,1,3.16-4.44,1.15,1.15,0,0,1,1-.27c.41.13.58.62.63,1.05A6.12,6.12,0,0,1,60.67,262c-1.14,1.58-2.81,2.73-4,4.27l-.06,0c.33,1.13.7,2.26,1.07,3.37a13.12,13.12,0,0,1,1.74-4A3.58,3.58,0,0,1,61,264.25a1.68,1.68,0,0,1,1.91.45,1.74,1.74,0,0,1,.3,1.16,5.52,5.52,0,0,1-2,3.29c-.92.93-1.82,1.92-2.78,2.81,0,.14.09.27.13.41q.9,2.92,1.73,5.88a22.94,22.94,0,0,1,.48-3.41,13.36,13.36,0,0,1,3-6.14,4.92,4.92,0,0,1,2.25-1.5,1,1,0,0,1,1,.18,1.18,1.18,0,0,1,.23.55,5,5,0,0,1-.95,3.55,36.6,36.6,0,0,1-3.85,4.5,11.12,11.12,0,0,0-2,2.93c.56,2,1.08,4.1,1.54,6.16a23.43,23.43,0,0,1,1.33-6.5c.58-1.74,1.65-3.56,3.43-4a1.63,1.63,0,0,1,.79,0,1.81,1.81,0,0,1,1.08,2,5.11,5.11,0,0,1-1.4,2.82c-.7.8-1.54,1.48-2.26,2.26a13.18,13.18,0,0,0-2.66,4.74c.34,1.61.66,3.22.94,4.84a18,18,0,0,1,.77-2.59,12.69,12.69,0,0,1,3-4.63,1.9,1.9,0,0,1,1.63-.74,1.66,1.66,0,0,1,1.07,1.14,4.44,4.44,0,0,1-.49,4,8.89,8.89,0,0,1-2,1.87L65.07,292a6,6,0,0,0-1.41,1.53c.27,1.79.51,3.59.68,5.39a15,15,0,0,1,.57-2.19,8.48,8.48,0,0,1,2.81-4.15,2.15,2.15,0,0,1,1.62-.54A1.68,1.68,0,0,1,70.5,294a3.51,3.51,0,0,1-1.32,2,8.44,8.44,0,0,1-1.93,1.26,6.29,6.29,0,0,0-1.45.77,5,5,0,0,0-1.16,1.66c-.06.13-.12.26-.19.38.13,1.42.25,2.85.32,4.28a8.65,8.65,0,0,1,2.93-3.49c.74-.51,1.8-.87,2.49-.29a1.4,1.4,0,0,1,.42.72,2.42,2.42,0,0,1-1.43,2.49c-.9.49-1.94.66-2.88,1.08-.54.24-1,.85-1.47,1.15a41.24,41.24,0,0,1-.33,6.77.5.5,0,0,1-1-.08c-.06-1.73-.09-3.44-.13-5.16a43.91,43.91,0,0,1-4.58-.89A2.06,2.06,0,0,1,57,305.2a1.69,1.69,0,0,1,1.33-1.73,3.33,3.33,0,0,1,2.3.42,11.58,11.58,0,0,1,2.7,2.46c-.05-1.76-.12-3.52-.25-5.28a6.17,6.17,0,0,0-1.4-.65c-.8-.22-1.65-.2-2.44-.43a2.07,2.07,0,0,1-1.63-1.65,1.8,1.8,0,0,1,2-1.67,4,4,0,0,1,2.49,1.47c.21.23.51.56.8.92,0-.14,0-.29,0-.43-.08-.78-.18-1.56-.28-2.34a23.65,23.65,0,0,1-3.34-1.67A7,7,0,0,1,56.55,293a2,2,0,0,1,.1-2.86,2.41,2.41,0,0,1,2.69.42,11.67,11.67,0,0,1,2.94,3.5c-.25-1.65-.54-3.29-.85-4.93-1.59-1-4.39-.74-5.89-2.24-.61-.61-1.22-1.93-.41-2.69.64-.59,1.92,0,2.61.2A7.78,7.78,0,0,1,61,286.94c-.13-.65-.26-1.29-.4-1.93-.18-.83-.37-1.65-.57-2.48a15.12,15.12,0,0,0-2.83-1.21c-1.44-.41-3.08-.56-3.57-2.28s.2-4.11,2.2-3a11.59,11.59,0,0,1,3.53,3.75c-.4-1.58-.81-3.15-1.25-4.72a13.53,13.53,0,0,0-3.54-1.13c-1.35-.15-3.29.29-3.9-1.22A2,2,0,0,1,53.12,270Z" fill="#3fa9f5"/><path d="M82,312.77s7.07-11,3-26.67c0,0-11.57,2.57-15.42,26.67Z" fill="#3fa9f5"/><path d="M76.77,312.77s3-14.46,4.71-17.35c0,0-5.08,9.15-5.84,17.35Z" fill="#fff"/><path d="M62.5,313s-7.07-11-3.06-26.67c0,0,11.57,2.57,15.43,26.67Z" fill="#3fa9f5"/><path d="M67.76,313s-3-14.46-4.7-17.35c0,0,5.07,9.15,5.83,17.35Z" fill="#fff"/><path d="M49.13,313S40,298.79,45.19,278.6c0,0,14.91,3.31,19.88,34.38Z" fill="#3fa9f5"/><path d="M55.92,313S52,294.34,49.85,290.61c0,0,6.55,11.8,7.52,22.37Z" fill="#fff"/><path d="M98.11,313s9.12-14.19,3.94-34.38c0,0-14.91,3.31-19.88,34.38Z" fill="#3fa9f5"/><path d="M91.32,313s3.89-18.64,6.07-22.37c0,0-6.54,11.8-7.52,22.37Z" fill="#fff"/><path d="M104.4,280l-1.56,7.21a6.16,6.16,0,0,0,2,6l5.66,4.81,3.61-3-3.82-5.94,2.33-5.51Z" fill="#ffcebd"/><path d="M137.28,283.15,144.7,280l1.86,7.45a6.18,6.18,0,0,1-1.83,6.07L139,298.72V289Z" fill="#ffcebd"/><path d="M120.52,267.87l4,5.73,3.18-5.73,7.15.68a7.55,7.55,0,0,1,6,4L144.7,280l-7.42,3.19,1.69,4.24v11.33l-15.06,7-9.54-5.41-4-11.25,2.33-5.51L104.4,280l4.91-7.83a7.56,7.56,0,0,1,5.37-3.46Z" fill="#ef7483"/><polygon points="108.43 300.33 108.43 287.39 141.09 287.39 141.09 300.33 123.91 305.74 108.43 300.33" fill="#fff"/><path d="M140,314.75s-32.66-3.61-44.12-9.54.85-11.67,11.46-8.28S140,308.6,140,308.6Z" fill="#003779"/><path d="M109.91,314.75l-.76-5.18s37.46-17.09,47.64-11.79S139.82,312.84,109.91,314.75Z" fill="#003779"/><path d="M109.17,309.55l.74,5.2s-13.47,1.7-14.53,1.17-4.56-2.87-2.33-5.09S106.09,308.49,109.17,309.55Z" fill="#f2a879"/><path d="M140.47,310.08l-.74,5s13.47,1.7,14.53,1.16,4.56-2.86,2.33-5.09S143.55,309,140.47,310.08Z" fill="#f2a879"/><polygon points="120.52 267.87 124.55 274.77 127.73 267.87 127.73 262.99 120.52 262.99 120.52 267.87" fill="#ffcebd"/><path d="M122.55,265.81s-5-3.16-5.58-7.06-.57-7.09.74-7.39,10-2.29,10.55-2,2.29,5.23,2.38,7.06c.17,3.64-3.69,9.12-4.82,9.75S122.55,265.81,122.55,265.81Z" fill="#ffcebd"/><path d="M117.06,259.19a13.48,13.48,0,0,1-2.27-5.74c-.32-3.08,1.08-6,2.23-6.58,6.57-3.18,9.12.85,14.74-1.27a35.44,35.44,0,0,1-1.06,3.92,8.67,8.67,0,0,0-.38,5.11s-1.74-2.77-3.23-3.2-7,1.38-8.27,0C118.82,251.43,116.24,251.78,117.06,259.19Z" fill="#333542"/><path d="M233.69,262.34s-2.4,19.4-1.6,29.21,1.6,18.8,1.6,18.8h4l1.5-25.31,3.51-8.3,1,8.13a7.49,7.49,0,0,0,4.53,5.94l18,7.54,1.8-3.2-15.33-10.66a2.69,2.69,0,0,1-1.15-2.05l-1.12-18.5Z" fill="#003779"/><path d="M222.79,225.42l3-3.6s11.2,6,13,7.41,12.81,3,15.21,8.6,5.8,13.4,5.8,13.4l-4.6,2.8-5.1-7.9.4,17.81s-8.8,5.6-16.81-1.6l-.4-24.61Z" fill="#ef7483"/><path d="M222.69,225.32l-3-3.6,4.2-15.4s-.2-3.4,1.2-4.6,2.2-1.6,3.2-1-2.2,2-1.2,3.8c0,0,1.2-.6,1.4-1.2s1.4-.2.8.8a24.88,24.88,0,0,1-2.6,3l-2.6,12.4,1.6,2.2Z" fill="#ffcebd"/><path d="M255.1,253.93l9.2,12.81a2.88,2.88,0,0,0,2.2,1.6,3.23,3.23,0,0,1,2.6,2.4c.4,1,1.61,1.6,1.2-1.4a4.65,4.65,0,0,0-3.8-4.2l-6.8-14Z" fill="#ffcebd"/><path d="M237.51,242.76a3.36,3.36,0,0,1-3.33.17c-2-1-4.69-2.52-4.69-4,0-2.4-.2-4.8,3.4-6.6a15.26,15.26,0,0,0,7.8-9.41c1-4,1.81-7,4.41-7.4s7.4.4,7.6,4.6-1,14.81-3,18.41-3,8.6-6.4,7.6-2-2.6-2.81-3.2A2.66,2.66,0,0,0,237.51,242.76Z" fill="#333542"/><path d="M233.69,310.35l-2,2.1a.54.54,0,0,0,.4.9h5a.53.53,0,0,0,.53-.53v-2.47Z" fill="#0d1a59"/><path d="M266.3,298.35v2.47a.54.54,0,0,0,1,.34l3.39-4.25a.53.53,0,0,0-.22-.83l-2.33-.93Z" fill="#0d1a59"/><path d="M387.8,315.4H2.2c-1.21,0-2.2-.53-2.2-1.19S1,313,2.2,313H387.8c1.21,0,2.2.54,2.2,1.2S389,315.4,387.8,315.4Z" fill="#003779"/></svg>